<mxfile host="app.diagrams.net" agent="Mozilla/5.0 (X11; Linux x86_64) AppleWebKit/537.36 (KHTML, like Gecko) Chrome/131.0.0.0 Safari/537.36" version="26.0.6">
  <diagram name="Page-1" id="8qm3c00aGgAs6RKdY-Ic">
    <mxGraphModel>
      <root>
        <mxCell id="0" />
        <mxCell id="1" parent="0" />
        <mxCell id="2" value="Library Management System" style="whiteSpace=wrap;strokeWidth=2;verticalAlign=top;" vertex="1" parent="1">
          <mxGeometry x="8" y="8" width="2258" height="1584" as="geometry" />
        </mxCell>
        <mxCell id="3" value="Elasticsearch Service" style="whiteSpace=wrap;strokeWidth=2;" vertex="1" parent="2">
          <mxGeometry x="43" y="1378" width="185" height="40" as="geometry" />
        </mxCell>
        <mxCell id="4" value="User API Client" style="ellipse;aspect=fixed;strokeWidth=2;whiteSpace=wrap;" vertex="1" parent="2">
          <mxGeometry x="123" y="83" width="123" height="123" as="geometry" />
        </mxCell>
        <mxCell id="5" value="User Microservice" style="rounded=1;arcSize=20;strokeWidth=2" vertex="1" parent="2">
          <mxGeometry x="105" y="377" width="158" height="54" as="geometry" />
        </mxCell>
        <mxCell id="6" value="User Repository" style="rounded=1;arcSize=20;strokeWidth=2" vertex="1" parent="2">
          <mxGeometry x="252" y="639" width="145" height="54" as="geometry" />
        </mxCell>
        <mxCell id="7" value="Book API Client" style="ellipse;aspect=fixed;strokeWidth=2;whiteSpace=wrap;" vertex="1" parent="2">
          <mxGeometry x="850" y="341" width="126" height="126" as="geometry" />
        </mxCell>
        <mxCell id="8" value="Book Microservice" style="rounded=1;arcSize=20;strokeWidth=2" vertex="1" parent="2">
          <mxGeometry x="833" y="639" width="161" height="54" as="geometry" />
        </mxCell>
        <mxCell id="9" value="Book Repository" style="rounded=1;arcSize=20;strokeWidth=2" vertex="1" parent="2">
          <mxGeometry x="1048" y="864" width="147" height="54" as="geometry" />
        </mxCell>
        <mxCell id="10" value="Elasticsearch" style="rounded=1;arcSize=20;strokeWidth=2" vertex="1" parent="2">
          <mxGeometry x="873" y="864" width="125" height="54" as="geometry" />
        </mxCell>
        <mxCell id="11" value="Issue API Client" style="ellipse;aspect=fixed;strokeWidth=2;whiteSpace=wrap;" vertex="1" parent="2">
          <mxGeometry x="507" y="602" width="128" height="128" as="geometry" />
        </mxCell>
        <mxCell id="12" value="Issue Microservice" style="rounded=1;arcSize=20;strokeWidth=2" vertex="1" parent="2">
          <mxGeometry x="490" y="864" width="162" height="54" as="geometry" />
        </mxCell>
        <mxCell id="13" value="Issue Repository" style="rounded=1;arcSize=20;strokeWidth=2" vertex="1" parent="2">
          <mxGeometry x="496" y="1053" width="149" height="54" as="geometry" />
        </mxCell>
        <mxCell id="14" value="Elasticsearch" style="rounded=1;arcSize=20;strokeWidth=2" vertex="1" parent="2">
          <mxGeometry x="679" y="1371" width="125" height="54" as="geometry" />
        </mxCell>
        <mxCell id="15" value="Database Services" style="whiteSpace=wrap;strokeWidth=2;" vertex="1" parent="2">
          <mxGeometry x="263" y="1241" width="879" height="314" as="geometry" />
        </mxCell>
        <mxCell id="16" value="Notification Service" style="whiteSpace=wrap;strokeWidth=2;verticalAlign=top;" vertex="1" parent="2">
          <mxGeometry x="1177" y="1279" width="1054" height="239" as="geometry" />
        </mxCell>
        <mxCell id="17" value="Notification API Client" style="ellipse;aspect=fixed;strokeWidth=2;whiteSpace=wrap;" vertex="1" parent="16">
          <mxGeometry x="58" y="43" width="169" height="169" as="geometry" />
        </mxCell>
        <mxCell id="18" value="Notification Microservice" style="rounded=1;arcSize=20;strokeWidth=2" vertex="1" parent="16">
          <mxGeometry x="403" y="100" width="203" height="54" as="geometry" />
        </mxCell>
        <mxCell id="19" value="Notification Provider" style="rounded=1;arcSize=20;strokeWidth=2" vertex="1" parent="16">
          <mxGeometry x="839" y="100" width="173" height="54" as="geometry" />
        </mxCell>
        <mxCell id="20" value="REST API" style="curved=1;startArrow=none;endArrow=block;exitX=1;exitY=0.5;entryX=0;entryY=0.51;" edge="1" parent="16" source="17" target="18">
          <mxGeometry relative="1" as="geometry">
            <Array as="points" />
          </mxGeometry>
        </mxCell>
        <mxCell id="21" value="Send Notifications" style="curved=1;startArrow=none;endArrow=block;exitX=1;exitY=0.51;entryX=0;entryY=0.51;" edge="1" parent="16" source="18" target="19">
          <mxGeometry relative="1" as="geometry">
            <Array as="points" />
          </mxGeometry>
        </mxCell>
        <mxCell id="22" value="Issue Service" style="whiteSpace=wrap;strokeWidth=2;" vertex="1" parent="2">
          <mxGeometry x="455" y="564" width="232" height="580" as="geometry" />
        </mxCell>
        <mxCell id="23" value="Book Service" style="whiteSpace=wrap;strokeWidth=2;" vertex="1" parent="2">
          <mxGeometry x="707" y="303" width="527" height="652" as="geometry" />
        </mxCell>
        <mxCell id="24" value="User Service" style="whiteSpace=wrap;strokeWidth=2;" vertex="1" parent="2">
          <mxGeometry x="29" y="46" width="405" height="722" as="geometry" />
        </mxCell>
        <mxCell id="25" value="REST API" style="curved=1;startArrow=none;endArrow=block;exitX=0.5;exitY=1;entryX=0.5;entryY=0;" edge="1" parent="2" source="4" target="5">
          <mxGeometry relative="1" as="geometry">
            <Array as="points" />
          </mxGeometry>
        </mxCell>
        <mxCell id="26" value="CRUD operations" style="curved=1;startArrow=none;endArrow=block;exitX=0.72;exitY=1;entryX=0.5;entryY=-0.01;" edge="1" parent="2" source="5" target="6">
          <mxGeometry relative="1" as="geometry">
            <Array as="points">
              <mxPoint x="324" y="516" />
            </Array>
          </mxGeometry>
        </mxCell>
        <mxCell id="27" value="REST API" style="curved=1;startArrow=none;endArrow=block;exitX=0.5;exitY=1;entryX=0.5;entryY=-0.01;" edge="1" parent="2" source="7" target="8">
          <mxGeometry relative="1" as="geometry">
            <Array as="points" />
          </mxGeometry>
        </mxCell>
        <mxCell id="28" value="CRUD operations" style="curved=1;startArrow=none;endArrow=block;exitX=0.84;exitY=0.99;entryX=0.5;entryY=0;" edge="1" parent="2" source="8" target="9">
          <mxGeometry relative="1" as="geometry">
            <Array as="points">
              <mxPoint x="1122" y="767" />
            </Array>
          </mxGeometry>
        </mxCell>
        <mxCell id="29" value="Search operations" style="curved=1;startArrow=none;endArrow=block;exitX=0.53;exitY=0.99;entryX=0.5;entryY=0;" edge="1" parent="2" source="8" target="10">
          <mxGeometry relative="1" as="geometry">
            <Array as="points">
              <mxPoint x="935" y="767" />
            </Array>
          </mxGeometry>
        </mxCell>
        <mxCell id="30" value="REST API" style="curved=1;startArrow=none;endArrow=block;exitX=0.5;exitY=1;entryX=0.5;entryY=0;" edge="1" parent="2" source="11" target="12">
          <mxGeometry relative="1" as="geometry">
            <Array as="points" />
          </mxGeometry>
        </mxCell>
        <mxCell id="31" value="CRUD operations" style="curved=1;startArrow=none;endArrow=block;exitX=0.5;exitY=1;entryX=0.5;entryY=-0.01;" edge="1" parent="2" source="12" target="13">
          <mxGeometry relative="1" as="geometry">
            <Array as="points" />
          </mxGeometry>
        </mxCell>
        <mxCell id="32" value="Queries" style="curved=1;startArrow=none;endArrow=block;exitX=0.5;exitY=0.99;entryX=0;entryY=0.07;" edge="1" parent="2" source="6" target="14">
          <mxGeometry relative="1" as="geometry">
            <Array as="points">
              <mxPoint x="324" y="1241" />
            </Array>
          </mxGeometry>
        </mxCell>
        <mxCell id="33" value="Queries" style="curved=1;startArrow=none;endArrow=block;exitX=0.5;exitY=1;entryX=1;entryY=0.02;" edge="1" parent="2" source="9" target="14">
          <mxGeometry relative="1" as="geometry">
            <Array as="points">
              <mxPoint x="1122" y="1241" />
            </Array>
          </mxGeometry>
        </mxCell>
        <mxCell id="34" value="Queries" style="curved=1;startArrow=none;endArrow=block;exitX=0.5;exitY=0.99;entryX=0.27;entryY=0;" edge="1" parent="2" source="13" target="14">
          <mxGeometry relative="1" as="geometry">
            <Array as="points">
              <mxPoint x="571" y="1241" />
            </Array>
          </mxGeometry>
        </mxCell>
        <mxCell id="35" value="Search Queries" style="curved=1;startArrow=none;endArrow=block;exitX=0.5;exitY=1;entryX=0.77;entryY=0;" edge="1" parent="2" source="10" target="14">
          <mxGeometry relative="1" as="geometry">
            <Array as="points">
              <mxPoint x="935" y="1241" />
            </Array>
          </mxGeometry>
        </mxCell>
        <mxCell id="36" value="Interacts with" style="curved=1;startArrow=none;endArrow=block;exitX=0.51;exitY=1;entryX=0;entryY=0.28;" edge="1" parent="2" source="5" target="8">
          <mxGeometry relative="1" as="geometry">
            <Array as="points">
              <mxPoint x="190" y="516" />
              <mxPoint x="190" y="564" />
            </Array>
          </mxGeometry>
        </mxCell>
        <mxCell id="37" value="Interacts with" style="curved=1;startArrow=none;endArrow=block;exitX=0.41;exitY=1;entryX=0.33;entryY=0;" edge="1" parent="2" source="5" target="12">
          <mxGeometry relative="1" as="geometry">
            <Array as="points">
              <mxPoint x="121" y="516" />
              <mxPoint x="121" y="767" />
              <mxPoint x="494" y="816" />
            </Array>
          </mxGeometry>
        </mxCell>
        <mxCell id="38" value="Interacts with" style="curved=1;startArrow=none;endArrow=block;exitX=0.31;exitY=0.99;entryX=1;entryY=0;" edge="1" parent="2" source="8" target="12">
          <mxGeometry relative="1" as="geometry">
            <Array as="points">
              <mxPoint x="799" y="767" />
              <mxPoint x="799" y="816" />
            </Array>
          </mxGeometry>
        </mxCell>
      </root>
    </mxGraphModel>
  </diagram>
</mxfile>
